<svg xmlns="http://www.w3.org/2000/svg" viewBox="0 0 800.91 757"><defs><style>.cls-1{fill:#27282b;}.cls-2{fill:#2b39bf;}</style></defs><g id="Layer_2" data-name="Layer 2"><g id="Layer_1-2" data-name="Layer 1"><path class="cls-1" d="M759,564.06c-2.12,2.51-4.4,5.15-6.83,7.88-27.73,31.33-75.94,76.47-148,107-10.4,4.39-20.57,8.19-30.48,11.47a.06.06,0,0,0-.05,0c-13.51,4.46-26.48,8-38.71,10.72-14.69,3.28-28.34,5.49-40.56,7q-4.11,13.77-8.23,27.53Q483,746.33,479.77,757q-86.28-24.11-172.6-48.24,10.15-27.9,20.29-55.85-33.16-23.85-66.36-47.69l-14.86-10.69-25.6,21q-15.13,12.36-30.25,24.74Q129.48,570.41,68.54,500.6L121.85,472,91.38,396.51Q45.71,390.18,0,383.83q1.26-66,2.53-132,20.85-.72,41.71-1.4l33.82-1.15q1.36-5.06,2.75-10.1Q87.37,215,93.93,190.9q-35.55-14-71.08-27.92l93.93-91.4q9.59,5.34,19.18,10.65Q149.2,89.63,162.47,97q17.16-7.78,34.33-15.61,10.75-4.89,21.52-9.78-16.53-19-33-38.06l44.55-8.35,73.49-13.75q12.7,16.11,25.38,32.24A486.81,486.81,0,0,1,454.4,86.82q8.87,4.49,17.17,9.11c-40.07-4.46-78.72.09-112.44,13.12-40.39,6.84-76.54,24-104,50.75C195.85,217.55,197.62,300,198,317.82c3,141,133.28,226.18,152.31,238.63C475,638,619.29,612.09,699.08,587,732.07,576.66,754,566.45,759,564.06Z"/><path class="cls-2" d="M800.91,552.64c-26.32,31.19-76.47,81.68-154.86,114.87a405.11,405.11,0,0,1-72.35,22.9.06.06,0,0,0-.05,0c-13.49,2.91-26,4.91-37.38,6.27-.44,1.49-.89,3-1.33,4.45q-6.65,22.22-13.27,44.43l-35.52-9.92L349,697.34q10.17-27.92,20.32-55.85l-81.24-58.38-27,22.11L232.27,628.8l-11.63-13.32q-55.09-63.15-110.23-126.3,26.68-14.3,53.32-28.56-15.24-37.75-30.45-75.53-45.7-6.33-91.4-12.69,1.17-61,2.36-122c0-3.34.12-6.69.19-10l36.38-1.23q19.57-.65,39.13-1.32,7.92-29.19,15.87-58.38-35.55-14-71.09-27.92L136,82.23l22.69-22.07q19.1,10.59,38.15,21.2l7.54,4.19,55.85-25.39q-15.15-17.49-30.33-35l-2.67-3.08Q286.22,11,345.23,0q12.7,16.11,25.39,32.23a485.34,485.34,0,0,1,212,99c-36.46-19.59-74.35-31.22-111-35.31-40.07-4.46-78.72.09-112.44,13.12A182.68,182.68,0,0,0,297,148.38c-59.27,57.74-57.51,140.18-57.11,158,3,141,133.27,226.18,152.31,238.63,105.18,68.81,224.3,61.13,306.87,42,20.11-4.66,38.07-10,53.11-15.09A442.45,442.45,0,0,0,800.91,552.64Z"/></g></g></svg>